<svg width="20" height="20" viewBox="0 0 20 20" fill="none" xmlns="http://www.w3.org/2000/svg">
<path d="M4.31681 12.747C3.26882 13.3612 0.521091 14.6155 2.19465 16.185C3.01216 16.9517 3.92266 17.5 5.06739 17.5H11.5994C12.7442 17.5 13.6547 16.9517 14.4722 16.185C16.1458 14.6155 13.398 13.3612 12.35 12.747C9.8925 11.3066 6.7743 11.3066 4.31681 12.747Z" fill="#FF2C20"/>
<path d="M11.6667 5.83333C11.6667 7.67428 10.1742 9.16667 8.33333 9.16667C6.49238 9.16667 5 7.67428 5 5.83333C5 3.99238 6.49238 2.5 8.33333 2.5C10.1742 2.5 11.6667 3.99238 11.6667 5.83333Z" fill="#FF2C20"/>
<path d="M17.5001 3.75L15.8334 5.41667L17.5001 3.75ZM15.8334 5.41667L14.1667 7.08333L15.8334 5.41667ZM15.8334 5.41667L17.5001 7.08333L15.8334 5.41667ZM15.8334 5.41667L14.1667 3.75L15.8334 5.41667Z" fill="#FF2C20"/>
<path d="M17.5001 3.75L15.8334 5.41667M15.8334 5.41667L14.1667 7.08333M15.8334 5.41667L17.5001 7.08333M15.8334 5.41667L14.1667 3.75" stroke="#FF2C20" stroke-linecap="round" stroke-linejoin="round"/>
</svg>
