<svg width="20" height="20" viewBox="0 0 20 20" fill="none" xmlns="http://www.w3.org/2000/svg">
<path d="M10.8334 1.66675H11.0606C13.7783 1.66675 15.1371 1.66675 16.0808 2.33161C16.3512 2.52211 16.5912 2.74801 16.7936 3.00249C17.5 3.89064 17.5 5.16955 17.5 7.72736V9.84858C17.5 12.3179 17.5 13.5525 17.1093 14.5386C16.481 16.1239 15.1525 17.3743 13.468 17.9656C12.4204 18.3334 11.1085 18.3334 8.48487 18.3334C6.98567 18.3334 6.23606 18.3334 5.63736 18.1232C4.67487 17.7854 3.91567 17.0708 3.55667 16.165C3.33337 15.6015 3.33337 14.896 3.33337 13.4849V10.0001" stroke="#141B34" stroke-width="1.5" stroke-linecap="round" stroke-linejoin="round"/>
<path d="M17.5 10C17.5 11.5341 16.2563 12.7777 14.7222 12.7777C14.1674 12.7777 13.5133 12.6806 12.9738 12.8251C12.4945 12.9535 12.1201 13.3279 11.9917 13.8072C11.8472 14.3467 11.9444 15.0007 11.9444 15.5556C11.9444 17.0897 10.7007 18.3333 9.16663 18.3333" stroke="#141B34" stroke-width="1.5" stroke-linecap="round" stroke-linejoin="round"/>
<path d="M9.16667 5.00008H2.5M5.83333 1.66675V8.33341" stroke="#141B34" stroke-width="1.5" stroke-linecap="round"/>
</svg>
