<svg width="20" height="20" viewBox="0 0 20 20" fill="none" xmlns="http://www.w3.org/2000/svg">
<path d="M10.4167 18.3334H7.91671C5.16685 18.3334 3.79192 18.3334 2.93765 17.4342C2.08337 16.5349 2.08337 15.0877 2.08337 12.1931V7.8071C2.08337 4.91251 2.08337 3.46521 2.93765 2.56598C3.79192 1.66675 5.16685 1.66675 7.91671 1.66675H10.4167C13.1665 1.66675 14.5415 1.66675 15.3958 2.56598C16.25 3.46521 16.25 4.91251 16.25 7.8071V9.16675" stroke="#041631" stroke-width="1.5" stroke-linecap="round" stroke-linejoin="round"/>
<path d="M15 12.5V18.3333M17.9167 15.4167H12.0834" stroke="#041631" stroke-width="1.5" stroke-linecap="round"/>
<path d="M5.83337 1.66675L5.90187 2.07775C6.06816 3.07545 6.1513 3.5743 6.50098 3.87052C6.85067 4.16675 7.35639 4.16675 8.36787 4.16675H9.96554C10.977 4.16675 11.4828 4.16675 11.8325 3.87052C12.1821 3.5743 12.2653 3.07545 12.4315 2.07775L12.5 1.66675" stroke="#041631" stroke-width="1.5" stroke-linecap="round" stroke-linejoin="round"/>
<path d="M5.83337 13.3334H9.16671M5.83337 9.16675H12.5" stroke="#041631" stroke-width="1.5" stroke-linecap="round"/>
</svg>
