<svg width="36" height="36" viewBox="0 0 36 36" fill="none" xmlns="http://www.w3.org/2000/svg">
<g clip-path="url(#clip0_52_376)">
<path d="M10 5.19995H28V6.74995H10V5.19995Z" fill="#3E5AF0"/>
<path d="M29.0004 8H9.86042C9.60522 7.99638 9.3534 7.94112 9.12014 7.83753C8.88688 7.73395 8.67702 7.5842 8.50321 7.3973C8.3294 7.21041 8.19524 6.99025 8.10883 6.7501C8.02242 6.50995 7.98554 6.25479 8.00042 6C7.99918 5.49296 8.19057 5.00436 8.53587 4.63307C8.88118 4.26177 9.35462 4.03549 9.86042 4H29.0004C29.2656 4 29.52 3.89464 29.7075 3.70711C29.8951 3.51957 30.0004 3.26522 30.0004 3C30.0004 2.73478 29.8951 2.48043 29.7075 2.29289C29.52 2.10536 29.2656 2 29.0004 2H9.86042C8.82401 2.0363 7.8422 2.47369 7.12207 3.21994C6.40194 3.96619 5.99978 4.96295 6.00042 6C5.99075 6.16319 5.99075 6.32681 6.00042 6.49C5.99079 6.56971 5.99079 6.65029 6.00042 6.73V30C5.99978 31.037 6.40194 32.0338 7.12207 32.7801C7.8422 33.5263 8.82401 33.9637 9.86042 34H29.0004C29.2656 34 29.52 33.8946 29.7075 33.7071C29.8951 33.5196 30.0004 33.2652 30.0004 33V9.07C30.001 8.79794 29.8979 8.53587 29.7122 8.33711C29.5264 8.13834 29.2719 8.0178 29.0004 8Z" fill="#3E5AF0"/>
</g>
<defs>
<clipPath id="clip0_52_376">
<rect width="36" height="36" fill="white"/>
</clipPath>
</defs>
</svg>
