<svg width="18" height="18" viewBox="0 0 18 18" fill="none" xmlns="http://www.w3.org/2000/svg">
<path d="M12.75 4.5C14.5092 4.5 15.0138 4.5 15.6197 4.96495C15.7757 5.08465 15.9154 5.22429 16.0351 5.38029C16.5 5.98623 16.5 6.86581 16.5 8.625V12C16.5 14.1213 16.5 15.1819 15.841 15.841C15.1819 16.5 14.1213 16.5 12 16.5H6C3.87868 16.5 2.81802 16.5 2.15901 15.841C1.5 15.1819 1.5 14.1213 1.5 12V8.625C1.5 6.86581 1.5 5.98623 1.96495 5.38029C2.08465 5.22429 2.22429 5.08465 2.38029 4.96495C2.98623 4.5 3.49081 4.5 5.25 4.5" stroke="#041631" stroke-linecap="round"/>
<path d="M12.75 5.25L12.0856 3.58907C11.799 2.87247 11.5495 2.05957 10.8124 1.69466C10.4193 1.5 9.9462 1.5 9 1.5C8.0538 1.5 7.5807 1.5 7.18751 1.69466C6.45045 2.05957 6.20101 2.87247 5.91437 3.58907L5.25 5.25" stroke="#041631" stroke-linecap="round" stroke-linejoin="round"/>
<path d="M11.625 10.5C11.625 11.9498 10.4498 13.125 9 13.125C7.55025 13.125 6.375 11.9498 6.375 10.5C6.375 9.05025 7.55025 7.875 9 7.875C10.4498 7.875 11.625 9.05025 11.625 10.5Z" stroke="#041631"/>
</svg>
