<svg width="40" height="40" viewBox="0 0 40 40" fill="none" xmlns="http://www.w3.org/2000/svg">
<path d="M35.4163 21.6663V14.1663C35.4163 11.9562 34.5384 9.83659 32.9756 8.27378C31.4128 6.71098 29.2931 5.83301 27.083 5.83301H12.9163C10.7062 5.83301 8.58659 6.71098 7.02378 8.27378C5.46098 9.83659 4.58301 11.9562 4.58301 14.1663V25.833C4.58301 26.9274 4.79856 28.011 5.21735 29.022C5.63613 30.0331 6.24996 30.9517 7.02378 31.7256C8.58659 33.2884 10.7062 34.1663 12.9163 34.1663H23.3497" stroke="#3E5AF0" stroke-width="2.5" stroke-linecap="round" stroke-linejoin="round"/>
<path d="M5.0166 28.3327L9.58327 22.9994C10.183 22.4038 10.9701 22.0336 11.8114 21.9516C12.6527 21.8696 13.4965 22.0808 14.1999 22.5494C14.9034 23.018 15.7472 23.2292 16.5885 23.1472C17.4298 23.0652 18.2169 22.695 18.8166 22.0994L22.6999 18.2161C23.8158 17.0965 25.2931 16.4097 26.8683 16.2785C28.4436 16.1472 30.0142 16.5799 31.2999 17.4994L35.4166 20.6827M13.3499 16.9494C13.7133 16.9472 14.0726 16.8735 14.4074 16.7324C14.7423 16.5914 15.046 16.3857 15.3014 16.1273C15.5567 15.8688 15.7587 15.5626 15.8957 15.2261C16.0327 14.8896 16.1021 14.5294 16.0999 14.1661C16.0977 13.8027 16.024 13.4434 15.883 13.1086C15.7419 12.7737 15.5363 12.47 15.2778 12.2146C15.0194 11.9593 14.7131 11.7573 14.3766 11.6203C14.0401 11.4833 13.6799 11.4139 13.3166 11.4161C12.5828 11.4205 11.8809 11.7162 11.3652 12.2382C10.8494 12.7602 10.5622 13.4656 10.5666 14.1994C10.571 14.9332 10.8667 15.6351 11.3887 16.1508C11.9107 16.6666 12.6162 16.9538 13.3499 16.9494Z" stroke="#3E5AF0" stroke-width="2.5" stroke-linecap="round" stroke-linejoin="round"/>
<path d="M31.1777 25V33.3333" stroke="#3E5AF0" stroke-width="2.5" stroke-miterlimit="10" stroke-linecap="round"/>
<path d="M34.9998 28.5084L31.7214 25.2301C31.6504 25.1581 31.5658 25.101 31.4726 25.062C31.3793 25.023 31.2792 25.0029 31.1781 25.0029C31.077 25.0029 30.9769 25.023 30.8837 25.062C30.7904 25.101 30.7058 25.1581 30.6348 25.2301L27.3564 28.5084" stroke="#3E5AF0" stroke-width="2.5" stroke-linecap="round" stroke-linejoin="round"/>
</svg>
