<svg width="14" height="14" viewBox="0 0 14 14" fill="none" xmlns="http://www.w3.org/2000/svg">
<path d="M10.5 1.16675V2.33341M3.5 1.16675V2.33341" stroke="#141B34" stroke-linecap="round" stroke-linejoin="round"/>
<path d="M1.45825 7.14187C1.45825 4.60013 1.45825 3.32925 2.18866 2.53962C2.91906 1.75 4.09462 1.75 6.44575 1.75H7.55408C9.90521 1.75 11.0808 1.75 11.8112 2.53962C12.5416 3.32925 12.5416 4.60013 12.5416 7.14187V7.44147C12.5416 9.98322 12.5416 11.2541 11.8112 12.0437C11.0808 12.8333 9.90521 12.8333 7.55408 12.8333H6.44575C4.09462 12.8333 2.91906 12.8333 2.18866 12.0437C1.45825 11.2541 1.45825 9.98322 1.45825 7.44147V7.14187Z" stroke="#141B34" stroke-linecap="round" stroke-linejoin="round"/>
<path d="M1.75 4.66675H12.25" stroke="#141B34" stroke-linecap="round" stroke-linejoin="round"/>
</svg>
