<svg width="40" height="40" viewBox="0 0 40 40" fill="none" xmlns="http://www.w3.org/2000/svg">
<path d="M36.6663 20.0002C36.6663 29.2048 29.2043 36.6668 19.9997 36.6668C10.7949 36.6668 3.33301 29.2048 3.33301 20.0002C3.33301 10.7954 10.7949 3.3335 19.9997 3.3335C29.2043 3.3335 36.6663 10.7954 36.6663 20.0002Z" stroke="#F8F9FD" stroke-width="2.5"/>
<path d="M24.5837 15.8333C24.5837 18.3647 22.5317 20.4167 20.0003 20.4167C17.469 20.4167 15.417 18.3647 15.417 15.8333C15.417 13.302 17.469 11.25 20.0003 11.25C22.5317 11.25 24.5837 13.302 24.5837 15.8333Z" stroke="#F8F9FD" stroke-width="2.5"/>
<path d="M9.16699 31.6668L10.101 30.0323C11.5847 27.436 14.3459 25.8335 17.3364 25.8335H22.6643C25.6548 25.8335 28.4159 27.436 29.8996 30.0323L30.8336 31.6668" stroke="#F8F9FD" stroke-width="2.5" stroke-linecap="round" stroke-linejoin="round"/>
</svg>
