<svg width="40" height="40" viewBox="0 0 40 40" fill="none" xmlns="http://www.w3.org/2000/svg">
<path d="M27.0232 8.30398L29.3593 5.96771C30.6497 4.67743 32.7417 4.67743 34.032 5.96771C35.3222 7.258 35.3222 9.34996 34.032 10.6402L31.6957 12.9765M27.0232 8.30398L18.3 17.0272C16.5579 18.7693 15.6868 19.6403 15.0936 20.7018C14.5005 21.7633 13.9037 24.2698 13.333 26.6667C15.7298 26.096 18.2363 25.4992 19.2978 24.906C20.3593 24.3128 21.2303 23.4418 22.9725 21.6997L31.6957 12.9765M27.0232 8.30398L31.6957 12.9765" stroke="#F8F9FD" stroke-width="2.5" stroke-linecap="round" stroke-linejoin="round"/>
<path d="M35 20C35 27.071 35 30.6067 32.8033 32.8033C30.6067 35 27.071 35 20 35C12.9289 35 9.3934 35 7.1967 32.8033C5 30.6067 5 27.071 5 20C5 12.9289 5 9.3934 7.1967 7.1967C9.3934 5 12.9289 5 20 5" stroke="#F8F9FD" stroke-width="2.5" stroke-linecap="round"/>
</svg>
