<svg width="24" height="24" viewBox="0 0 24 24" fill="none" xmlns="http://www.w3.org/2000/svg">
<path d="M22 12C22 17.5229 17.5229 22 12 22C6.47716 22 2 17.5229 2 12C2 6.47716 6.47716 2 12 2C17.5229 2 22 6.47716 22 12Z" stroke="#041631" stroke-width="1.5"/>
<path d="M11.8778 8.14551C10.2998 8.14551 9.14355 9.06287 9.14355 10.1276C9.14355 11.1921 9.88913 11.8578 12.0007 11.8578C14.3267 11.8578 14.8578 12.9184 14.8578 13.983C14.8578 15.0477 13.8411 15.8886 11.8778 15.8886M11.8778 8.14551C13.1218 8.14551 13.7794 8.58102 14.2987 9.16727M11.8778 8.14551V6.93945M11.8778 15.8886C10.6338 15.8886 10.1501 15.6428 9.46498 15.0228M11.8778 15.8886V17.0134" stroke="#041631" stroke-width="1.5" stroke-linecap="round"/>
</svg>
