<svg width="24" height="24" viewBox="0 0 24 24" fill="none" xmlns="http://www.w3.org/2000/svg">
<rect width="24" height="24" rx="12" fill="#E7ECFB"/>
<path d="M17.6134 6.74683C17.5458 6.58393 17.4163 6.45448 17.2534 6.38683C17.1733 6.35267 17.0872 6.33455 17.0001 6.3335H14.3334C14.1566 6.3335 13.987 6.40373 13.862 6.52876C13.737 6.65378 13.6668 6.82335 13.6668 7.00016C13.6668 7.17697 13.737 7.34654 13.862 7.47157C13.987 7.59659 14.1566 7.66683 14.3334 7.66683H15.3934L13.7934 9.26683C12.8487 8.55979 11.6712 8.23689 10.498 8.36313C9.32475 8.48937 8.24291 9.05538 7.47022 9.94721C6.69754 10.839 6.2914 11.9905 6.33355 13.1697C6.3757 14.349 6.86302 15.4685 7.6974 16.3028C8.53179 17.1372 9.65129 17.6246 10.8305 17.6667C12.0098 17.7089 13.1612 17.3027 14.053 16.53C14.9449 15.7573 15.5109 14.6755 15.6371 13.5023C15.7634 12.329 15.4405 11.1516 14.7334 10.2068L16.3334 8.60683V9.66683C16.3334 9.84364 16.4037 10.0132 16.5287 10.1382C16.6537 10.2633 16.8233 10.3335 17.0001 10.3335C17.1769 10.3335 17.3465 10.2633 17.4715 10.1382C17.5965 10.0132 17.6668 9.84364 17.6668 9.66683V7.00016C17.6657 6.91304 17.6476 6.82698 17.6134 6.74683ZM13.3334 15.3335C12.8699 15.8063 12.2762 16.1304 11.6278 16.2645C10.9794 16.3985 10.3057 16.3364 9.69275 16.0861C9.07978 15.8358 8.55525 15.4086 8.18602 14.859C7.8168 14.3094 7.61962 13.6623 7.61962 13.0002C7.61962 12.3381 7.8168 11.6909 8.18602 11.1413C8.55525 10.5917 9.07978 10.1645 9.69275 9.91422C10.3057 9.66391 10.9794 9.60181 11.6278 9.73585C12.2762 9.86989 12.8699 10.194 13.3334 10.6668C13.9442 11.2899 14.2863 12.1277 14.2863 13.0002C14.2863 13.8727 13.9442 14.7104 13.3334 15.3335Z" fill="#3E5AF0"/>
</svg>
