<svg width="28" height="28" viewBox="0 0 28 28" fill="none" xmlns="http://www.w3.org/2000/svg">
<g filter="url(#filter0_d_2315_4343)">
<path d="M14 21.3334C18.6024 21.3334 22.3334 17.6024 22.3334 13C22.3334 8.39764 18.6024 4.66669 14 4.66669C10.2686 4.66669 7.14526 7.1191 6.08337 10.5H8.16671" stroke="#526484" stroke-width="1.5" stroke-linecap="round" stroke-linejoin="round"/>
<path d="M14 9.66669V13L15.6667 14.6667" stroke="#526484" stroke-width="1.5" stroke-linecap="round" stroke-linejoin="round"/>
<path d="M5.66663 13C5.66663 13.2811 5.67929 13.5591 5.70408 13.8333M11.5 21.3333C11.2153 21.2397 10.9372 21.1303 10.6666 21.0065M6.67445 17.1667C6.51375 16.857 6.3704 16.5361 6.24577 16.2052M8.02598 19.0887C8.28071 19.3632 8.55251 19.6201 8.83958 19.8577" stroke="#526484" stroke-width="1.5" stroke-linecap="round" stroke-linejoin="round"/>
</g>
<defs>
<filter id="filter0_d_2315_4343" x="0" y="0" width="28" height="28" filterUnits="userSpaceOnUse" color-interpolation-filters="sRGB">
<feFlood flood-opacity="0" result="BackgroundImageFix"/>
<feColorMatrix in="SourceAlpha" type="matrix" values="0 0 0 0 0 0 0 0 0 0 0 0 0 0 0 0 0 0 127 0" result="hardAlpha"/>
<feOffset dy="1"/>
<feGaussianBlur stdDeviation="2"/>
<feComposite in2="hardAlpha" operator="out"/>
<feColorMatrix type="matrix" values="0 0 0 0 0.211765 0 0 0 0 0.290196 0 0 0 0 0.388235 0 0 0 0.05 0"/>
<feBlend mode="normal" in2="BackgroundImageFix" result="effect1_dropShadow_2315_4343"/>
<feBlend mode="normal" in="SourceGraphic" in2="effect1_dropShadow_2315_4343" result="shape"/>
</filter>
</defs>
</svg>
