<svg width="24" height="24" viewBox="0 0 24 24" fill="none" xmlns="http://www.w3.org/2000/svg">
<path d="M2.35139 13.2135C1.99837 10.9162 1.82186 9.76763 2.25617 8.74938C2.69047 7.73112 3.65403 7.03443 5.58114 5.64106L7.02099 4.6C9.41829 2.86667 10.617 2 12 2C13.3831 2 14.5817 2.86667 16.979 4.6L18.4189 5.64106C20.346 7.03443 21.3096 7.73112 21.7439 8.74938C22.1782 9.76763 22.0017 10.9162 21.6486 13.2135L21.3476 15.1724C20.8472 18.4289 20.5969 20.0572 19.429 21.0286C18.2611 22 16.5537 22 13.1388 22H10.8612C7.44634 22 5.73891 22 4.571 21.0286C3.40309 20.0572 3.15287 18.4289 2.65243 15.1724L2.35139 13.2135Z" stroke="#3E5AF0" stroke-width="1.5" stroke-linejoin="round"/>
<path d="M9.08721 22.7361L8.83657 19.2272C8.70182 17.3407 10.196 15.7361 12.0872 15.7361C13.9785 15.7361 15.4726 17.3407 15.3379 19.2272L15.0872 22.7361" fill="white"/>
<path d="M9.08721 22.7361L8.83657 19.2272C8.70182 17.3407 10.196 15.7361 12.0872 15.7361C13.9785 15.7361 15.4726 17.3407 15.3379 19.2272L15.0872 22.7361" stroke="#3E5AF0" stroke-width="1.5"/>
</svg>
