<svg width="40" height="40" viewBox="0 0 40 40" fill="none" xmlns="http://www.w3.org/2000/svg">
<path d="M25 29.375C24.8773 32.4615 22.3052 35.0823 18.8593 34.998C18.0577 34.9783 17.0668 34.699 15.0852 34.14C10.316 32.7947 6.17592 30.5338 5.1826 25.4692C5 24.5383 5 23.4907 5 21.3955V18.6045C5 16.5093 5 15.4617 5.1826 14.5308C6.17592 9.46608 10.316 7.20526 15.0852 5.86005C17.0668 5.30106 18.0577 5.02158 18.8593 5.00198C22.3052 4.91768 24.8773 7.53845 25 10.625" stroke="#F8F9FD" stroke-width="2.5" stroke-linecap="round"/>
<path d="M35.0003 19.9987H16.667M35.0003 19.9987C35.0003 18.8317 31.6765 16.6512 30.8337 15.832M35.0003 19.9987C35.0003 21.1657 31.6765 23.3462 30.8337 24.1654" stroke="#F8F9FD" stroke-width="2.5" stroke-linecap="round" stroke-linejoin="round"/>
</svg>
