<svg width="24" height="24" viewBox="0 0 24 24" fill="none" xmlns="http://www.w3.org/2000/svg">
<rect width="24" height="24" rx="12" fill="#E7ECFB"/>
<path d="M16.6666 9.99977C16.6676 9.10503 16.4114 8.22885 15.9285 7.47561C15.4456 6.72238 14.7563 6.12385 13.9428 5.75133C13.1293 5.37881 12.2259 5.24801 11.3401 5.37452C10.4544 5.50102 9.62364 5.8795 8.94694 6.46485C8.27023 7.0502 7.77606 7.81775 7.52331 8.67605C7.27056 9.53436 7.26989 10.4472 7.52136 11.3059C7.77283 12.1646 8.26586 12.9329 8.94169 13.5192C9.61753 14.1056 10.4477 14.4853 11.3332 14.6131V15.9998H10.6666C10.4898 15.9998 10.3202 16.07 10.1952 16.195C10.0702 16.3201 9.99992 16.4896 9.99992 16.6664C9.99992 16.8433 10.0702 17.0128 10.1952 17.1378C10.3202 17.2629 10.4898 17.3331 10.6666 17.3331H11.3332V17.9998C11.3332 18.1766 11.4035 18.3462 11.5285 18.4712C11.6535 18.5962 11.8231 18.6664 11.9999 18.6664C12.1767 18.6664 12.3463 18.5962 12.4713 18.4712C12.5963 18.3462 12.6666 18.1766 12.6666 17.9998V17.3331H13.3332C13.5101 17.3331 13.6796 17.2629 13.8047 17.1378C13.9297 17.0128 13.9999 16.8433 13.9999 16.6664C13.9999 16.4896 13.9297 16.3201 13.8047 16.195C13.6796 16.07 13.5101 15.9998 13.3332 15.9998H12.6666V14.6131C13.7763 14.4529 14.7913 13.8986 15.5258 13.0514C16.2603 12.2043 16.6653 11.121 16.6666 9.99977ZM11.9999 13.3331C11.3406 13.3331 10.6962 13.1376 10.148 12.7713C9.59985 12.4051 9.17261 11.8845 8.92032 11.2754C8.66802 10.6663 8.60201 9.99608 8.73063 9.34947C8.85925 8.70287 9.17672 8.10893 9.64289 7.64275C10.1091 7.17658 10.703 6.85911 11.3496 6.73049C11.9962 6.60187 12.6664 6.66788 13.2755 6.92018C13.8846 7.17247 14.4052 7.59971 14.7715 8.14787C15.1378 8.69604 15.3332 9.3405 15.3332 9.99977C15.3332 10.4375 15.247 10.871 15.0795 11.2754C14.912 11.6798 14.6665 12.0473 14.3569 12.3568C14.0474 12.6663 13.6799 12.9119 13.2755 13.0794C12.8711 13.2469 12.4377 13.3331 11.9999 13.3331Z" fill="#3E5AF0"/>
</svg>
