<svg width="15" height="16" viewBox="0 0 15 16" fill="none" xmlns="http://www.w3.org/2000/svg">
<path d="M12.8125 11.0804V6.75C12.8125 4.39298 12.8125 3.21447 12.0802 2.48223C11.3481 1.75 10.1695 1.75 7.8125 1.75H7.1875C4.83048 1.75 3.65197 1.75 2.91973 2.48223C2.1875 3.21447 2.1875 4.39298 2.1875 6.75V12.6875" fill="#3E5AF0"/>
<path d="M12.8125 11.0804V6.75C12.8125 4.39298 12.8125 3.21447 12.0802 2.48223C11.3481 1.75 10.1695 1.75 7.8125 1.75H7.1875C4.83048 1.75 3.65197 1.75 2.91973 2.48223C2.1875 3.21447 2.1875 4.39298 2.1875 6.75V12.6875" stroke="#3E5AF0" stroke-linecap="round"/>
<path d="M12.8125 11.125H3.75C2.88706 11.125 2.1875 11.8246 2.1875 12.6875C2.1875 13.5504 2.88706 14.25 3.75 14.25H12.8125" fill="white"/>
<path d="M12.8125 11.125H3.75C2.88706 11.125 2.1875 11.8246 2.1875 12.6875C2.1875 13.5504 2.88706 14.25 3.75 14.25H12.8125" stroke="#3E5AF0" stroke-linecap="round"/>
<path d="M12.8125 14.25C11.9496 14.25 11.25 13.5504 11.25 12.6875C11.25 11.8246 11.9496 11.125 12.8125 11.125" stroke="#3E5AF0" stroke-linecap="round"/>
<path d="M9.375 4.875H5.625" stroke="white" stroke-linecap="round" stroke-linejoin="round"/>
<path d="M7.5 7.375H5.625" stroke="white" stroke-linecap="round" stroke-linejoin="round"/>
</svg>
