<svg width="50" height="50" viewBox="0 0 50 50" fill="none" xmlns="http://www.w3.org/2000/svg">
<g filter="url(#filter0_d_2216_2163)">
<rect x="4" width="42" height="42" rx="8" fill="white" shape-rendering="crispEdges"/>
<rect x="4.5" y="0.5" width="41" height="41" rx="7.5" stroke="#CBD5E1" shape-rendering="crispEdges"/>
<path d="M15 27C15 25.4596 15 24.6893 15.3467 24.1235C15.5407 23.8069 15.8069 23.5407 16.1235 23.3467C16.6893 23 17.4596 23 19 23C20.5404 23 21.3107 23 21.8765 23.3467C22.1931 23.5407 22.4593 23.8069 22.6533 24.1235C23 24.6893 23 25.4596 23 27C23 28.5404 23 29.3107 22.6533 29.8765C22.4593 30.1931 22.1931 30.4593 21.8765 30.6533C21.3107 31 20.5404 31 19 31C17.4596 31 16.6893 31 16.1235 30.6533C15.8069 30.4593 15.5407 30.1931 15.3467 29.8765C15 29.3107 15 28.5404 15 27Z" stroke="#041631" stroke-width="1.5"/>
<path d="M27 27C27 25.4596 27 24.6893 27.3467 24.1235C27.5407 23.8069 27.8069 23.5407 28.1235 23.3467C28.6893 23 29.4596 23 31 23C32.5404 23 33.3107 23 33.8765 23.3467C34.1931 23.5407 34.4593 23.8069 34.6533 24.1235C35 24.6893 35 25.4596 35 27C35 28.5404 35 29.3107 34.6533 29.8765C34.4593 30.1931 34.1931 30.4593 33.8765 30.6533C33.3107 31 32.5404 31 31 31C29.4596 31 28.6893 31 28.1235 30.6533C27.8069 30.4593 27.5407 30.1931 27.3467 29.8765C27 29.3107 27 28.5404 27 27Z" stroke="#041631" stroke-width="1.5"/>
<path d="M15 15C15 13.4596 15 12.6893 15.3467 12.1235C15.5407 11.8069 15.8069 11.5407 16.1235 11.3467C16.6893 11 17.4596 11 19 11C20.5404 11 21.3107 11 21.8765 11.3467C22.1931 11.5407 22.4593 11.8069 22.6533 12.1235C23 12.6893 23 13.4596 23 15C23 16.5404 23 17.3107 22.6533 17.8765C22.4593 18.1931 22.1931 18.4593 21.8765 18.6533C21.3107 19 20.5404 19 19 19C17.4596 19 16.6893 19 16.1235 18.6533C15.8069 18.4593 15.5407 18.1931 15.3467 17.8765C15 17.3107 15 16.5404 15 15Z" stroke="#041631" stroke-width="1.5"/>
<path d="M27 15C27 13.4596 27 12.6893 27.3467 12.1235C27.5407 11.8069 27.8069 11.5407 28.1235 11.3467C28.6893 11 29.4596 11 31 11C32.5404 11 33.3107 11 33.8765 11.3467C34.1931 11.5407 34.4593 11.8069 34.6533 12.1235C35 12.6893 35 13.4596 35 15C35 16.5404 35 17.3107 34.6533 17.8765C34.4593 18.1931 34.1931 18.4593 33.8765 18.6533C33.3107 19 32.5404 19 31 19C29.4596 19 28.6893 19 28.1235 18.6533C27.8069 18.4593 27.5407 18.1931 27.3467 17.8765C27 17.3107 27 16.5404 27 15Z" stroke="#041631" stroke-width="1.5"/>
</g>
<defs>
<filter id="filter0_d_2216_2163" x="0" y="0" width="50" height="50" filterUnits="userSpaceOnUse" color-interpolation-filters="sRGB">
<feFlood flood-opacity="0" result="BackgroundImageFix"/>
<feColorMatrix in="SourceAlpha" type="matrix" values="0 0 0 0 0 0 0 0 0 0 0 0 0 0 0 0 0 0 127 0" result="hardAlpha"/>
<feOffset dy="4"/>
<feGaussianBlur stdDeviation="2"/>
<feComposite in2="hardAlpha" operator="out"/>
<feColorMatrix type="matrix" values="0 0 0 0 0.945098 0 0 0 0 0.960784 0 0 0 0 0.976471 0 0 0 1 0"/>
<feBlend mode="normal" in2="BackgroundImageFix" result="effect1_dropShadow_2216_2163"/>
<feBlend mode="normal" in="SourceGraphic" in2="effect1_dropShadow_2216_2163" result="shape"/>
</filter>
</defs>
</svg>
