<svg width="20" height="20" viewBox="0 0 20 20" fill="none" xmlns="http://www.w3.org/2000/svg">
<path d="M10.0003 18.3346C14.6027 18.3346 18.3337 14.6037 18.3337 10.0013C18.3337 5.39893 14.6027 1.66797 10.0003 1.66797C5.39795 1.66797 1.66699 5.39893 1.66699 10.0013C1.66699 14.6037 5.39795 18.3346 10.0003 18.3346Z" stroke="#041631" stroke-width="1.25" stroke-linecap="round" stroke-linejoin="round"/>
<path d="M6.66667 2.50195H7.5C5.875 7.36862 5.875 12.6353 7.5 17.502H6.66667" stroke="#041631" stroke-width="1.25" stroke-linecap="round" stroke-linejoin="round"/>
<path d="M12.5 2.50195C14.125 7.36862 14.125 12.6353 12.5 17.502" stroke="#041631" stroke-width="1.25" stroke-linecap="round" stroke-linejoin="round"/>
<path d="M2.5 13.3353V12.502C7.36667 14.127 12.6333 14.127 17.5 12.502V13.3353" stroke="#041631" stroke-width="1.25" stroke-linecap="round" stroke-linejoin="round"/>
<path d="M2.5 7.50195C7.36667 5.87695 12.6333 5.87695 17.5 7.50195" stroke="#041631" stroke-width="1.25" stroke-linecap="round" stroke-linejoin="round"/>
</svg>
