<svg width="20" height="20" viewBox="0 0 20 20" fill="none" xmlns="http://www.w3.org/2000/svg">
<path d="M16.2864 8.74984L18.3337 9.1665C17.9145 4.9554 14.3528 1.6665 10.0209 1.6665C5.40719 1.6665 1.66699 5.39746 1.66699 9.99984C1.66699 14.6022 5.40719 18.3332 10.0209 18.3332C13.4466 18.3332 16.3907 16.2763 17.6798 13.3332" stroke="#141B34" stroke-width="1.25" stroke-linecap="round" stroke-linejoin="round"/>
<path d="M8.61394 9.06641C7.71396 9.06641 7.26396 9.71641 7.16396 10.1164C7.06396 10.5164 7.06396 11.9664 7.12396 12.5664C7.32396 13.3164 7.82396 13.6264 8.31396 13.7264C8.76394 13.7664 10.6639 13.7514 11.2139 13.7514C12.0139 13.7664 12.6139 13.4664 12.8639 12.5664C12.9139 12.2664 12.9639 10.6164 12.8389 10.1164C12.5739 9.31641 11.9139 9.06641 11.4139 9.06641H8.61394Z" stroke="#141B34" stroke-width="1.25" stroke-linecap="round"/>
<path d="M8.54199 8.71542C8.54199 8.66542 8.54883 8.37758 8.54999 8.01545C8.55099 7.68454 8.52199 7.36545 8.67999 7.07345C9.27199 5.89545 10.972 6.01545 11.392 7.21545C11.4647 7.41302 11.4691 7.72622 11.467 8.01545C11.4642 8.385 11.472 8.71542 11.472 8.71542" stroke="#141B34" stroke-width="1.25" stroke-linecap="round"/>
</svg>
