<svg width="20" height="20" viewBox="0 0 20 20" fill="none" xmlns="http://www.w3.org/2000/svg">
<path d="M11.44 2.86999L12.9065 5.82724C13.1065 6.23889 13.6397 6.63375 14.0897 6.70936L16.7477 7.15463C18.4476 7.44028 18.8476 8.68367 17.6227 9.91025L15.5562 11.9938C15.2062 12.3466 15.0147 13.0271 15.1229 13.5144L15.7146 16.0936C16.1812 18.1351 15.1062 18.9248 13.3148 17.8578L10.8234 16.3708C10.3735 16.102 9.63191 16.102 9.17357 16.3708L6.68222 17.8578C4.89907 18.9248 3.81587 18.1267 4.28248 16.0936L4.87408 13.5144C4.9824 13.0271 4.79076 12.3466 4.44079 11.9938L2.37436 9.91025C1.15782 8.68367 1.54945 7.44028 3.24926 7.15463L5.9073 6.70936C6.34892 6.63375 6.88219 6.23889 7.08217 5.82724L8.54866 2.86999C9.34857 1.26534 10.6484 1.26534 11.44 2.86999Z" stroke="#041631" stroke-width="1.25" stroke-linecap="round" stroke-linejoin="round"/>
</svg>
