<svg width="20" height="20" viewBox="0 0 20 20" fill="none" xmlns="http://www.w3.org/2000/svg">
<path d="M14.167 9.83725C14.167 9.54916 14.167 9.40516 14.2103 9.27683C14.3363 8.90383 14.6685 8.75916 15.0012 8.60758C15.3753 8.43716 15.5623 8.352 15.7477 8.337C15.9581 8.31998 16.1688 8.36533 16.3487 8.46625C16.5871 8.6 16.7533 8.85425 16.9236 9.061C17.7097 10.0158 18.1027 10.4933 18.2466 11.0198C18.3627 11.4447 18.3627 11.889 18.2466 12.3138C18.0368 13.0817 17.3741 13.7255 16.8835 14.3213C16.6326 14.6261 16.5071 14.7785 16.3487 14.8674C16.1688 14.9683 15.9581 15.0137 15.7477 14.9967C15.5623 14.9817 15.3753 14.8965 15.0012 14.7261C14.6685 14.5745 14.3363 14.4298 14.2103 14.0568C14.167 13.9285 14.167 13.7845 14.167 13.4964V9.83725Z" stroke="#141B34" stroke-width="1.25"/>
<path d="M5.83366 9.8373C5.83366 9.47464 5.82348 9.14864 5.53025 8.89364C5.4236 8.80089 5.2822 8.73647 4.99942 8.60764C4.62533 8.4373 4.43829 8.35214 4.25296 8.33714C3.69692 8.29214 3.39776 8.67164 3.0771 9.06114C2.29095 10.016 1.89788 10.4934 1.75404 11.0199C1.63798 11.4448 1.63798 11.8891 1.75404 12.314C1.96383 13.0819 2.62659 13.7256 3.11717 14.3215C3.4264 14.6971 3.7218 15.0397 4.25296 14.9968C4.43829 14.9818 4.62533 14.8966 4.99942 14.7262C5.2822 14.5974 5.4236 14.533 5.53025 14.4402C5.82348 14.1852 5.83366 13.8593 5.83366 13.4966V9.8373Z" stroke="#141B34" stroke-width="1.25"/>
<path d="M16.6673 8.74984V7.49984C16.6673 4.27818 13.6826 1.6665 10.0007 1.6665C6.31875 1.6665 3.33398 4.27818 3.33398 7.49984V8.74984" stroke="#141B34" stroke-width="1.25" stroke-linecap="round" stroke-linejoin="round"/>
<path d="M16.6667 14.5835C16.6667 18.3335 13.3333 18.3335 10 18.3335" stroke="#141B34" stroke-width="1.25" stroke-linecap="round" stroke-linejoin="round"/>
</svg>
