<svg width="20" height="20" viewBox="0 0 20 20" fill="none" xmlns="http://www.w3.org/2000/svg">
<path d="M2.10794 11.9948C1.93073 13.1224 2.72301 13.905 3.69305 14.295C7.41202 15.7903 12.5873 15.7903 16.3063 14.295C17.2763 13.905 18.0686 13.1224 17.8914 11.9948C17.7825 11.3019 17.244 10.7249 16.845 10.1615C16.3224 9.41442 16.2705 8.59959 16.2704 7.73268C16.2704 4.38242 13.4629 1.6665 9.99968 1.6665C6.53645 1.6665 3.72895 4.38242 3.72895 7.73268C3.72887 8.59959 3.67694 9.41442 3.15435 10.1615C2.75538 10.7249 2.21685 11.3019 2.10794 11.9948Z" stroke="#141B34" stroke-width="1.25" stroke-linecap="round" stroke-linejoin="round"/>
<path d="M7.5 17.5C8.16344 18.0183 9.03958 18.3333 10 18.3333C10.9604 18.3333 11.8366 18.0183 12.5 17.5" stroke="#141B34" stroke-width="1.25" stroke-linecap="round" stroke-linejoin="round"/>
</svg>
