<svg width="20" height="20" viewBox="0 0 20 20" fill="none" xmlns="http://www.w3.org/2000/svg">
<path d="M4.43509 8.06878C6.44649 4.50966 7.45218 2.7301 8.83225 2.27201C9.59141 2.02001 10.4092 2.02001 11.1684 2.27201C12.5485 2.7301 13.5542 4.50966 15.5656 8.06878C17.577 11.6279 18.5827 13.4074 18.281 14.8574C18.115 15.6552 17.7061 16.3787 17.1128 16.9244C16.0345 17.9164 14.0232 17.9164 10.0003 17.9164C5.97754 17.9164 3.96614 17.9164 2.8878 16.9244C2.29456 16.3787 1.88565 15.6552 1.71968 14.8574C1.41799 13.4074 2.42369 11.6279 4.43509 8.06878Z" stroke="#141B34" stroke-width="1.25"/>
<path d="M10.2015 14.1667V10.8333C10.2015 10.4405 10.2015 10.2441 10.0794 10.122C9.95741 10 9.761 10 9.36816 10" stroke="#141B34" stroke-width="1.25" stroke-linecap="round" stroke-linejoin="round"/>
<path d="M9.99316 7.5H10.0007" stroke="#141B34" stroke-width="1.66667" stroke-linecap="round" stroke-linejoin="round"/>
</svg>
