<svg width="40" height="40" viewBox="0 0 40 40" fill="none" xmlns="http://www.w3.org/2000/svg">
<path d="M35.5295 11.9022L34.7068 10.4745C34.0847 9.39477 33.7737 8.85492 33.2443 8.63964C32.715 8.42437 32.1163 8.59424 30.9192 8.93397L28.8855 9.50681C28.1212 9.68307 27.3192 9.58307 26.6213 9.22449L26.0598 8.90054C25.4613 8.51722 25.001 7.95206 24.7462 7.28774L24.1897 5.62544C23.8237 4.52541 23.6407 3.97539 23.205 3.66079C22.7695 3.34619 22.1908 3.34619 21.0335 3.34619H19.1755C18.0183 3.34619 17.4397 3.34619 17.004 3.66079C16.5684 3.97539 16.3854 4.52541 16.0195 5.62544L15.4629 7.28774C15.2081 7.95206 14.7477 8.51722 14.1493 8.90054L13.5878 9.22449C12.8899 9.58307 12.088 9.68307 11.3236 9.50681L9.28991 8.93397C8.09267 8.59424 7.49407 8.42437 6.96477 8.63964C6.43547 8.85492 6.12441 9.39477 5.50224 10.4745L4.67961 11.9022C4.09642 12.9142 3.80482 13.4203 3.86142 13.959C3.91801 14.4977 4.30837 14.9318 5.08909 15.8L6.80749 17.7212C7.22749 18.2528 7.52567 19.1795 7.52567 20.0127C7.52567 20.8462 7.22759 21.7725 6.80754 22.3043L5.08909 24.2255C4.30837 25.0938 3.91802 25.5278 3.86142 26.0667C3.80482 26.6053 4.09642 27.1113 4.67961 28.1233L5.50222 29.551C6.12437 30.6307 6.43547 31.1707 6.96477 31.3858C7.49407 31.6012 8.09269 31.4313 9.28994 31.0915L11.3236 30.5187C12.088 30.3423 12.8901 30.4425 13.5881 30.8012L14.1495 31.1252C14.7478 31.5085 15.2081 32.0735 15.4628 32.7378L16.0195 34.4003C16.3854 35.5003 16.5684 36.0503 17.004 36.365C17.4397 36.6795 18.0183 36.6795 19.1755 36.6795H21.0335C22.1908 36.6795 22.7695 36.6795 23.205 36.365C23.6407 36.0503 23.8237 35.5003 24.1897 34.4003L24.7463 32.7378C25.001 32.0735 25.4612 31.5085 26.0597 31.1252L26.621 30.8012C27.319 30.4425 28.121 30.3423 28.8855 30.5187L30.9192 31.0915C32.1163 31.4313 32.715 31.6012 33.2443 31.3858C33.7737 31.1707 34.0847 30.6307 34.7068 29.551L35.5295 28.1233C36.1127 27.1113 36.4042 26.6053 36.3477 26.0667C36.291 25.5278 35.9007 25.0938 35.12 24.2255L33.4015 22.3043C32.9815 21.7725 32.6833 20.8462 32.6833 20.0127C32.6833 19.1795 32.9817 18.2528 33.4015 17.7212L35.12 15.8C35.9007 14.9318 36.291 14.4977 36.3477 13.959C36.4042 13.4203 36.1127 12.9142 35.5295 11.9022Z" stroke="#F8F9FD" stroke-width="2.5" stroke-linecap="round"/>
<path d="M25.8658 19.9998C25.8658 23.2215 23.2542 25.8332 20.0325 25.8332C16.8108 25.8332 14.1992 23.2215 14.1992 19.9998C14.1992 16.7782 16.8108 14.1665 20.0325 14.1665C23.2542 14.1665 25.8658 16.7782 25.8658 19.9998Z" stroke="#F8F9FD" stroke-width="2.5"/>
</svg>
