<svg width="8" height="8" viewBox="0 0 8 8" fill="none" xmlns="http://www.w3.org/2000/svg">
<path d="M5.81177 2.375C6.54477 2.375 6.75502 2.375 7.00749 2.56873C7.07249 2.61861 7.13068 2.67679 7.18055 2.74179C7.37427 2.99426 7.37427 3.36076 7.37427 4.09375V5.5C7.37427 6.38388 7.37427 6.82582 7.09968 7.10041C6.82508 7.37501 6.38314 7.37501 5.49927 7.37501H2.99927C2.11538 7.37501 1.67344 7.37501 1.39886 7.10041C1.12427 6.82582 1.12427 6.38388 1.12427 5.5V4.09375C1.12427 3.36076 1.12427 2.99426 1.318 2.74179C1.36787 2.67679 1.42606 2.61861 1.49106 2.56873C1.74353 2.375 1.95377 2.375 2.68677 2.375" stroke="white" stroke-linecap="round"/>
<path d="M5.81177 2.6875L5.53496 1.99545C5.41552 1.69686 5.31158 1.35816 5.00446 1.20611C4.84064 1.125 4.64352 1.125 4.24927 1.125C3.85502 1.125 3.65789 1.125 3.49406 1.20611C3.18696 1.35816 3.08302 1.69686 2.96359 1.99545L2.68677 2.6875" stroke="white" stroke-linecap="round" stroke-linejoin="round"/>
<path d="M5.34302 4.875C5.34302 5.47906 4.85333 5.96875 4.24927 5.96875C3.64521 5.96875 3.15552 5.47906 3.15552 4.875C3.15552 4.27094 3.64521 3.78125 4.24927 3.78125C4.85333 3.78125 5.34302 4.27094 5.34302 4.875Z" stroke="white"/>
</svg>
