<svg width="20" height="20" viewBox="0 0 20 20" fill="none" xmlns="http://www.w3.org/2000/svg">
<path d="M7.0835 14.9999C8.59475 13.3718 11.3893 13.2952 12.9168 14.9999M11.6173 9.99992C11.6173 10.9204 10.8908 11.6666 9.99466 11.6666C9.0985 11.6666 8.372 10.9204 8.372 9.99992C8.372 9.07942 9.0985 8.33325 9.99466 8.33325C10.8908 8.33325 11.6173 9.07942 11.6173 9.99992Z" stroke="#6B7280" stroke-width="1.25" stroke-linecap="round"/>
<path d="M7.9165 3.33496C5.71285 3.34318 4.53401 3.42023 3.77078 4.14329C2.9165 4.9526 2.9165 6.25517 2.9165 8.86034V12.8077C2.9165 15.4128 2.9165 16.7153 3.77078 17.5247C4.62505 18.334 5.99998 18.334 8.74984 18.334H11.2498C13.9997 18.334 15.3746 18.334 16.2289 17.5247C17.0832 16.7153 17.0832 15.4128 17.0832 12.8077V8.86034C17.0832 6.25517 17.0832 4.9526 16.2289 4.14329C15.4657 3.42023 14.2868 3.34318 12.0832 3.33496" stroke="#6B7280" stroke-width="1.25" stroke-linecap="round" stroke-linejoin="round"/>
<path d="M8.1433 3.0262C8.22325 2.68052 8.26324 2.50769 8.34 2.36654C8.51892 2.03772 8.84884 1.79607 9.24267 1.70542C9.41175 1.6665 9.60784 1.6665 9.99984 1.6665C10.3918 1.6665 10.5879 1.6665 10.757 1.70542C11.1508 1.79607 11.4808 2.03771 11.6597 2.36654C11.7364 2.50769 11.7764 2.68052 11.8563 3.0262L11.9258 3.3263C12.0676 3.93937 12.1385 4.2459 12.0315 4.4817C11.9623 4.63442 11.8442 4.76519 11.6923 4.85743C11.4578 4.99984 11.1102 4.99984 10.4149 4.99984H9.58475C8.8895 4.99984 8.54184 4.99984 8.30734 4.85743C8.15548 4.76519 8.03742 4.63442 7.96814 4.4817C7.86118 4.2459 7.93208 3.93937 8.07389 3.3263L8.1433 3.0262Z" stroke="#6B7280" stroke-width="1.25"/>
</svg>
